<svg xmlns="http://www.w3.org/2000/svg" width="580" height="580">
  <circle cx="290" cy="291" r="196" fill="#fff" />
  <path fill-rule="evenodd" fill="#808080" d="M290.688 184.125s3.888.8 6.673 6.117c3.058 5.838 6.543 9.367 11.676 1.668 6.116-9.175 7.055-24.916 2.78-37.253-5.9-17.017 21.685-30.07 30.581-9.453 2.533 5.871-2.5 13.067-2.224 20.573.206 5.556-.556 31.693-.556 31.693s0 31.415 11.676 35.585 19.739 18.9 17.793 22.24-.378-3.531-6.673-3.336c-9.479.294-20.655 10.07-28.912 13.345-8.363 3.316-25.577 15.012-15.569 35.585 7.251 14.9 10.008 23.074 8.34 25.576s-3.476 8.947-1.668 11.677c3.7 5.581 5.282 15.29 2.78 17.792-1.238 1.239-9.528 20.914-36.7 21.685-25.012.709-37.609-19.831-38.365-23.909-1.39-7.506 2.78-13.066 2.78-15.568s1.028-7.771-.556-12.233c-3.058-8.618 10.009-27.244 10.009-27.244s8.634-18.316-13.345-31.137a263.537 263.537 0 0 0-30.58-15.569s-3.059-1.39-8.341 2.78 5-18.626 16.125-20.572c9.506-1.664 12.69-29.735 13.344-40.589.62-10.292-.457-26.58-.556-28.357-.278-5-5.37-14.986-2.224-22.8 5.412-13.436 35.99-9.448 30.025 10.565-4.634 15.546-8.173 22.213 3.336 39.477 5.8 8.693 10.564-2.224 10.564-2.224a8.327 8.327 0 0 1 7.787-6.114Zm65.054 45.594s8.306 3.9 13.345 10.008c4.019 4.872 5 12.232 5 12.232s23.334 2.839 45.037-26.132c16.327-21.795 8.9-47.262 8.9-47.262s-7.688-1.767-31.693 6.673c-15.634 5.5-28.356 16.68-28.356 16.68a26.988 26.988 0 0 0-3.337 11.676c-.395 8.206-5.581 16.727-8.896 16.125Zm-131.5.277s-8.3 3.888-13.342 9.977c-4.018 4.857-5 12.195-5 12.195s-23.328 2.83-45.026-26.052C144.551 204.388 151.98 179 151.98 179s7.686-1.761 31.685 6.652c15.631 5.48 28.35 16.629 28.35 16.629a26.854 26.854 0 0 1 3.335 11.641c.395 8.183 5.581 16.678 8.895 16.078Zm115.373 46.428s10.753-13.076 21.128-15.012c10.476-1.956 19.461 6.672 19.461 6.672s3.614 1.39-1.112 1.668-11.676-1.112-11.676-1.112l-6.673 13.9s3.058 3.058 5.56 2.78-7.506 7.228-16.68-1.112c-4.417-4.015-5.282-7.784-7.784-7.228s-2.221-.556-2.221-.556Zm-98.206 0s-10.754-13.076-21.129-15.012c-10.475-1.956-19.461 6.672-19.461 6.672s-3.614 1.39 1.113 1.668 11.676-1.112 11.676-1.112l6.672 13.9s-3.058 3.058-5.56 2.78 7.506 7.228 16.68-1.112c4.417-4.015 5.282-7.784 7.785-7.228s2.227-.556 2.227-.556Zm37.6 106.2s12.127 3.939 22.241-.556c5-2.224-11.121-.556-11.121-.556s-15.565-1.391-11.117 1.111Zm71.726-85.07v22.24s-6.624 10.388-10.564 0c-3.055-8.063 11.401-26.412 10.567-22.241Zm0 32.248s-13.085-9.5-18.348 26.689c-1.04 7.166 20.575-16.681 18.351-26.691Zm-20.016 7.229s7.98-2.55 3.892-18.9c-1.111-4.454-3.611 19.177-3.889 18.899Zm-101.036-39.478v22.24s6.624 10.388 10.564 0c3.059-8.062-11.398-26.411-10.564-22.24Zm0 32.248s13.085-9.5 18.349 26.689c1.042 7.167-20.573-16.68-18.349-26.69Zm20.017 7.229s-7.981-2.55-3.892-18.9c1.112-4.453 3.614 19.178 3.892 18.9Zm82.134 28.356s2.78 22.8 1.668 25.577-6.193 6.21-7.785-.556c-1.112-4.726 0-19.46 0-19.46ZM319.6 375.951l-10.008 10.008s-3.614 14.734-2.224 17.792 8.618 6.4 11.12-5 1.669-21.688 1.112-22.8Zm10.008 65.609 8.341-3.892s-3.614-24.742-3.892-30.58-8.341-12.511-11.121 1.112 3.337 29.468 6.673 33.36Zm-30.024 3.893 22.24-2.78s-3.336-23.353-9.452-23.909-15.011 22.796-12.787 26.689Zm-48.721-80.067s-2.78 22.8-1.668 25.577 6.192 6.21 7.784-.556c1.112-4.726 0-19.46 0-19.46Zm28.7 22.241s18.071 3.614 21.129 0-1.39 35.029-10.565 34.473-12.227-33.917-10.559-34.473ZM263.1 375.951l10 10.008s3.615 14.734 2.225 17.792-8.619 6.4-11.121-5-1.664-21.688-1.104-22.8Zm-10.012 65.609-8.34-3.892s3.614-24.742 3.892-30.58 8.34-12.511 11.12 1.112-3.336 29.468-6.672 33.36Zm30.025 3.893-22.241-2.78s3.336-23.353 9.452-23.909 15.013 22.796 12.789 26.689Z" />
  <path fill-rule="evenodd" fill="#fff" d="M297.917 309.785s8.062-12.232 14.456 0 0 17.792 0 17.792-10.564 9.175-15.012 0 .556-17.792.556-17.792Zm-15.673 0s-8.062-12.232-14.456 0 0 17.792 0 17.792 10.564 9.175 15.012 0-.556-17.792-.556-17.792Z" />
  <path fill-rule="evenodd" fill="#808080" d="M301.809 328.133s12.51-12.788 6.116-15.568-7.784 13.066-6.116 15.568Zm-22.727 0s-12.511-12.788-6.117-15.568 7.785 13.066 6.117 15.568Z" />
  <circle cx="290" cy="290" r="250" fill="none" stroke="#fff" stroke-width="80" />
  <path fill-rule="evenodd" fill="#808080" d="m389.7 17.317-34.75 60.189s24.766 9.1 46.417 21.6a302.648 302.648 0 0 1 40.185 28.4L476.3 67.317a324.294 324.294 0 0 0-39.569-27.464C414.727 27.148 389.7 17.317 389.7 17.317ZM576 240h-69.5s4.5 26 4.5 51a302.754 302.754 0 0 1-4.5 49H576a324.321 324.321 0 0 0 4-48c0-25.41-4-52-4-52Zm-99.7 272.683-34.75-60.189s-20.266 16.9-41.917 29.4a302.717 302.717 0 0 1-44.685 20.6l34.75 60.189a324.224 324.224 0 0 0 43.569-20.536c22.006-12.704 43.033-29.464 43.033-29.464Zm-286 50 34.75-60.189s-24.766-9.1-46.417-21.6a302.672 302.672 0 0 1-40.185-28.4L103.7 512.683a324.261 324.261 0 0 0 39.569 27.464c22.004 12.705 47.031 22.536 47.031 22.536ZM4 340h69.5S69 314 69 289a302.754 302.754 0 0 1 4.5-49H4a324.321 324.321 0 0 0-4 48c0 25.41 4 52 4 52Zm99.7-272.683 34.75 60.189s20.266-16.9 41.917-29.4a302.777 302.777 0 0 1 44.685-20.6L190.3 17.317a324.332 324.332 0 0 0-43.569 20.536C124.727 50.558 103.7 67.317 103.7 67.317Z" />
  <g>
    <path fill="#fff" stroke="#808080" stroke-linejoin="round" stroke-width="2" d="M260 10h60v60h-60z" />
    <circle cx="290" cy="40" r="5" fill="#808080" />
  </g>
  <g>
    <path fill="#fff" stroke="#808080" stroke-linejoin="round" stroke-width="2" d="m32.513 175.981 30-51.962 51.961 30-30 51.962Z" />
    <path fill-rule="evenodd" fill="#808080" d="M89.654 157.01a5 5 0 1 1 1.83 6.83 5 5 0 0 1-1.83-6.83Zm-40.981 10.98a5 5 0 1 1 1.83 6.831 5 5 0 0 1-1.83-6.831Z" />
  </g>
  <g>
    <path fill="#fff" stroke="#808080" stroke-linejoin="round" stroke-width="2" d="m62.513 455.981-30-51.962 51.962-30 30 51.962Z" />
     <path fill-rule="evenodd" fill="#808080" d="M74.654 397.01a5 5 0 1 1 6.83 1.83 5 5 0 0 1-6.83-1.83Zm-5.49 20.49a5 5 0 1 1 6.83 1.83 5 5 0 0 1-6.83-1.83Zm-5.49 20.49a5 5 0 1 1 6.83 1.831 5 5 0 0 1-6.831-1.831Z" />
  </g>
  <g>
    <path fill="#fff" stroke="#808080" stroke-linejoin="round" stroke-width="2" d="M320 570h-60v-60h60v60Z" />
    <path fill-rule="evenodd" fill="#808080" d="M305 560a5 5 0 1 1 5-5 5 5 0 0 1-5 5Zm0-15a5 5 0 1 1 5-5 5 5 0 0 1-5 5Zm0-15a5 5 0 1 1 5-5 5 5 0 0 1-5 5Zm-30 30a5 5 0 1 1 5-5 5 5 0 0 1-5 5Zm0-15a5 5 0 1 1 5-5 5 5 0 0 1-5 5Zm0-15a5 5 0 1 1 5-5 5 5 0 0 1-5 5Z" />
  </g>
  <g>
    <path fill="#fff" stroke="#808080" stroke-linejoin="round" stroke-width="2" d="m547.487 404.019-30 51.962-51.961-30 30-51.962Z" />
    <path fill-rule="evenodd" fill="#808080" d="M505.346 397.01a5 5 0 1 1-1.83-6.831 5 5 0 0 1 1.83 6.831Zm-15 25.98a5 5 0 1 1-1.83-6.83 5 5 0 0 1 1.83 6.83Zm25.981 15a5 5 0 1 1-1.83-6.83 5 5 0 0 1 1.83 6.83Zm15-25.98a5 5 0 1 1-1.83-6.831 5 5 0 0 1 1.83 6.831Zm-20.491 5.49a5 5 0 1 1-1.83-6.83 5 5 0 0 1 1.83 6.83Z" />
  </g>
  <g>
    <path fill="#fff" stroke="#808080" stroke-linejoin="round" stroke-width="2" d="m517.487 124.019 30 51.962-51.961 30-30-51.962Z" />
    <path fill-rule="evenodd" fill="#808080" d="M490.346 157.01a5 5 0 1 1-6.83-1.831 5 5 0 0 1 6.83 1.831Zm25.981-15a5 5 0 1 1-6.83-1.831 5 5 0 0 1 6.83 1.831Zm15 25.98a5 5 0 1 1-6.83-1.83 5 5 0 0 1 6.83 1.83Zm-25.981 15a5 5 0 1 1-6.83-1.83 5 5 0 0 1 6.83 1.83Z" />
  </g>
  <path fill="none" stroke="#fff" stroke-width="20" d="M289.25 89.494c111.151 0 201.256 90.105 201.256 201.257S400.4 492.006 289.25 492.006 87.994 401.9 87.994 290.75 178.1 89.494 289.25 89.494Z" />
  <path fill-rule="evenodd" fill="#808080" d="M260 82v19a142.415 142.415 0 0 1 30-3 223.692 223.692 0 0 1 30 3V82a150.494 150.494 0 0 0-30-3 210.286 210.286 0 0 0-30 3Zm108.019 12.867-9.5 16.454A142.392 142.392 0 0 1 386 123.723a223.657 223.657 0 0 1 24.481 17.6l9.5-16.454a150.436 150.436 0 0 0-24.481-17.6 210.248 210.248 0 0 0-27.481-12.402Zm87.114 65.152-16.454 9.5A142.41 142.41 0 0 1 456.277 194a223.779 223.779 0 0 1 12.4 27.481l16.454-9.5a150.5 150.5 0 0 0-12.4-27.481 210.282 210.282 0 0 0-17.598-24.481ZM498 260h-19a142.392 142.392 0 0 1 3 30 223.636 223.636 0 0 1-3 30h19a150.494 150.494 0 0 0 3-30 210.286 210.286 0 0 0-3-30Zm-12.867 108.019-16.454-9.5A142.392 142.392 0 0 1 456.277 386a223.657 223.657 0 0 1-17.6 24.481l16.454 9.5a150.436 150.436 0 0 0 17.6-24.481 210.146 210.146 0 0 0 12.402-27.481Zm-65.152 87.114-9.5-16.454A142.41 142.41 0 0 1 386 456.277a223.779 223.779 0 0 1-27.481 12.4l9.5 16.454a150.5 150.5 0 0 0 27.481-12.4 210.282 210.282 0 0 0 24.481-17.598ZM320 498v-19a142.392 142.392 0 0 1-30 3 223.636 223.636 0 0 1-30-3v19a150.494 150.494 0 0 0 30 3 210.286 210.286 0 0 0 30-3Zm-108.019-12.867 9.5-16.454A142.392 142.392 0 0 1 194 456.277a223.657 223.657 0 0 1-24.481-17.6l-9.5 16.454a150.436 150.436 0 0 0 24.481 17.6 210.146 210.146 0 0 0 27.481 12.402Zm-87.114-65.152 16.454-9.5A142.41 142.41 0 0 1 123.723 386a223.779 223.779 0 0 1-12.4-27.481l-16.454 9.5a150.486 150.486 0 0 0 12.4 27.481 210.282 210.282 0 0 0 17.598 24.481ZM82 320h19a142.415 142.415 0 0 1-3-30 223.692 223.692 0 0 1 3-30H82a150.494 150.494 0 0 0-3 30 210.286 210.286 0 0 0 3 30Zm12.867-108.019 16.454 9.5A142.392 142.392 0 0 1 123.723 194a223.657 223.657 0 0 1 17.6-24.481l-16.454-9.5a150.436 150.436 0 0 0-17.6 24.481 210.248 210.248 0 0 0-12.402 27.481Zm65.152-87.114 9.5 16.454A142.41 142.41 0 0 1 194 123.723a223.779 223.779 0 0 1 27.481-12.4l-9.5-16.454a150.486 150.486 0 0 0-27.481 12.4 210.282 210.282 0 0 0-24.481 17.598Z" />
</svg>